<?xml version="1.0" standalone="no"?><!DOCTYPE svg PUBLIC "-//W3C//DTD SVG 1.1//EN" "http://www.w3.org/Graphics/SVG/1.1/DTD/svg11.dtd"><svg t="1505271069220" class="icon" style="" viewBox="0 0 1102 1024" version="1.1" xmlns="http://www.w3.org/2000/svg" p-id="5087" xmlns:xlink="http://www.w3.org/1999/xlink" width="215.234375" height="200"><defs><style type="text/css"></style></defs><path d="M1097.137234 3.621435a10.864304 10.864304 0 0 0-11.887753-1.25963L6.298147 560.613823a11.336665 11.336665 0 0 0 1.731991 20.705159L369.228877 697.519797a11.021758 11.021758 0 0 0 10.785577-2.361805l499.600523-455.513493-398.908896 477.793188a11.336665 11.336665 0 0 0 5.274699 18.028447l400.719612 123.522411a11.179211 11.179211 0 0 0 14.013378-8.108865L1101.073576 15.115553a11.336665 11.336665 0 0 0-3.936342-11.494118zM603.205043 824.112555l-110.689936-34.403629a10.785577 10.785577 0 0 0-9.919582 1.653264 11.336665 11.336665 0 0 0-4.487429 9.053586v211.539018a11.257938 11.257938 0 0 0 11.100484 11.257938 11.021758 11.021758 0 0 0 9.447221-5.274699l110.689936-177.056661a11.257938 11.257938 0 0 0-6.140694-16.768817z" p-id="5088" fill="#515151"></path></svg>